<?xml version="1.0" encoding="UTF-8"?>
<svg width="169.67mm" height="145.54mm" version="1.1" viewBox="0 0 169.67 145.54" xmlns="http://www.w3.org/2000/svg"><rect x="23.735" y="43.523" width="5.5787" height="41.981" rx="1" fill="#c7c034"/><path d="m16.834 34.583 3.8708 4.3627h128.83l3.6963-4.279z" fill="#222"/><path d="m10.285 98.633 4.2395-8.0392h141.1l4.0483 7.885z" fill="#222"/><rect x="36.735" y="57.343" width="5.5787" height="28.163" rx="1" fill="#a41914"/><g transform="translate(-24.808 -86.84)" stroke="#000" stroke-width=".7" style="shape-inside:url(#rect255-3);white-space:pre" aria-label="QuelParti.fr"><path d="m54.36 208.55-2.159-2.159q-2.3622 2.0828-6.0706 2.0828-2.7178 0-4.7498-1.1684-2.0066-1.1938-3.0988-3.302-1.0668-2.1336-1.0668-4.8514 0-2.6924 1.0414-4.7752 1.0668-2.1082 3.0734-3.302 2.032-1.1938 4.8006-1.1938t4.8006 1.1938 3.0988 3.302q1.0668 2.0828 1.0668 4.7752 0 1.8542-0.508 3.4544-0.4826 1.5748-1.4224 2.7686l2.1844 2.1844zm-8.2296-1.4224q3.0988 0 5.0546-1.7526l-2.2352-2.2352 0.9906-1.016 2.1844 2.2098q1.4478-2.0828 1.4478-5.1816 0-2.3622-0.889-4.1656t-2.5654-2.794-3.9878-0.9906q-2.286 0-3.9624 0.9906t-2.5654 2.794q-0.8636 1.8034-0.8636 4.1656 0 2.413 0.889 4.2164 0.9144 1.8034 2.5654 2.794 1.6764 0.9652 3.937 0.9652z"/><path d="m70.81 195.36v12.7h-1.3462l-0.0762-1.8796q-1.5748 1.3462-2.5654 1.8288t-2.1844 0.4826q-1.4732 0-2.6924-0.6096-1.1938-0.6096-1.8796-1.7272-0.6858-1.143-0.6858-2.667v-8.128h1.4986v8.128q0 1.7018 1.143 2.7432 1.1684 1.0414 2.8956 1.0414 1.0668 0 1.9812-0.4572 0.9398-0.4826 2.4384-1.8034v-9.652z"/><path d="m87.462 200.7q0 0.8382-0.1524 1.7272h-10.846q0.2032 2.3876 1.5748 3.6576t3.556 1.27q1.1176 0 2.159-0.3048 1.0668-0.3048 1.905-0.889l0.7366 0.9652q-2.0066 1.3716-4.8006 1.3716-2.0828 0-3.5814-0.8636-1.4986-0.889-2.286-2.4384-0.7874-1.5748-0.7874-3.6068 0-1.905 0.7366-3.4036 0.762-1.524 2.2352-2.3876t3.556-0.8636q2.8194 0 4.3942 1.4986 1.6002 1.4986 1.6002 4.2672zm-6.0706-4.6228q-2.286 0-3.5814 1.397-1.27 1.397-1.3716 3.8354h9.5758q0.0508-0.6604 0.0508-0.889 0-2.0828-1.2446-3.2004-1.2446-1.143-3.429-1.143z"/><path d="m95.859 208.49q-1.8288 0-2.8194-0.6604t-1.397-2.0066q-0.381-1.3716-0.381-3.6576v-13.157h1.4732v13.157q0 2.032 0.3302 3.1496 0.3302 1.0922 1.016 1.524t1.8542 0.4318q0.4318 0 0.6858-0.0254v1.2192q-0.254 0.0254-0.762 0.0254z"/><path d="m107.86 190.28q1.8288 0 3.1496 0.7366 1.3462 0.7366 2.0574 2.0574t0.7112 3.048q0 2.667-1.5748 4.2672t-4.3434 1.6002h-5.8166v6.0706h-1.524v-17.78zm-0.1524 10.439q2.159 0 3.3528-1.2192 1.1938-1.2446 1.1938-3.3782 0-2.1082-1.2192-3.3274-1.1938-1.2446-3.3274-1.2446h-5.6642v9.1694z"/><path d="m122.2 195.03q1.5748 0 2.8448 0.5842 1.27 0.5588 2.0066 1.6256t0.7366 2.4892v8.3312h-1.3462l-0.0762-1.8288q-1.1176 1.143-2.2352 1.6764-1.1176 0.508-2.4892 0.508-1.397 0-2.5908-0.4572t-1.9558-1.397q-0.7366-0.9652-0.7366-2.3622 0-2.0574 1.5494-3.1242 1.5748-1.0668 4.0132-1.0668 1.1176 0 2.159 0.254t2.2352 0.8382v-1.397q0-1.6256-1.2192-2.5908-1.2192-0.9906-3.0734-0.9906-2.032 0-4.1656 1.1938l-0.4318-1.0414q0.9652-0.5588 2.2352-0.889 1.2954-0.3556 2.54-0.3556zm-0.254 12.243q1.27 0 2.3114-0.508 1.0414-0.5334 2.0574-1.651v-2.9464q-1.0668-0.635-2.0574-0.889-0.9906-0.2794-2.1336-0.2794-1.9304 0-3.1496 0.7874t-1.2192 2.3368 1.1938 2.3622q1.2192 0.7874 2.9972 0.7874z"/><path d="m138.76 194.93v1.27q-0.3556-0.0508-0.5842-0.0508-0.9652 0-1.778 0.5334-0.8128 0.508-2.4384 2.0828v9.2964h-1.4732v-12.7h1.3462l0.0762 2.1844q1.6764-1.5748 2.54-2.0828 0.889-0.5334 2.0066-0.5334z"/><path d="m144.21 196.51v5.6642q0 2.413 0.6858 3.7592t2.6162 1.3462q0.4318 0 0.635-0.0254v1.2192q-0.2286 0.0254-0.6858 0.0254-2.0574 0-3.0988-0.9398t-1.3462-2.2606q-0.2794-1.3208-0.2794-3.1242v-5.6642h-2.54v-1.143h2.54v-3.6322h1.4732v3.6322h3.937v1.143z"/><path d="m152.6 190.71q0.4826 0 0.7874 0.2794t0.3048 0.7366-0.3048 0.7366-0.7874 0.2794-0.7874-0.2794q-0.2794-0.2794-0.2794-0.7366t0.2794-0.7366q0.3048-0.2794 0.7874-0.2794zm-0.7366 17.348v-12.7h1.4732v12.7z"/><path d="m159.86 208.49q-0.508 0-0.8128-0.2794t-0.3048-0.7366q0-0.4826 0.3048-0.762t0.8128-0.2794 0.7874 0.2794q0.3048 0.2794 0.3048 0.762 0 0.4572-0.3048 0.7366t-0.7874 0.2794z"/><path d="m173.08 188.58q0.508 0 0.762 0.0254v1.2192q-0.2286-0.0254-0.6604-0.0254-2.3622 0-3.4798 1.3208t-1.1176 3.9624v0.2794h4.191v1.143h-4.191v11.557h-1.4732v-11.557h-2.3368v-1.143h2.3368v-0.2794q0-3.2258 1.5494-4.8514 1.5494-1.651 4.4196-1.651z"/><path d="m182.39 194.93v1.27q-0.3556-0.0508-0.5842-0.0508-0.9652 0-1.778 0.5334-0.8128 0.508-2.4384 2.0828v9.2964h-1.4732v-12.7h1.3462l0.0762 2.1844q1.6764-1.5748 2.54-2.0828 0.889-0.5334 2.0066-0.5334z"/></g><g transform="translate(3.8803 3.1741)" stroke="#000" stroke-width=".5"><path d="m12.658 123.05q1.4693 0 2.5188 0.72849l-0.46919 0.50623q-0.82726-0.60501-2.0496-0.60501-1.1112 0-1.9262 0.49389-0.80257 0.48154-1.2347 1.3582-0.4198 0.87665-0.4198 2.0373 0 1.173 0.4198 2.0496 0.43215 0.87665 1.2347 1.3705 0.81492 0.48154 1.9262 0.48154 1.2347 0 2.0496-0.59266l0.46919 0.50623q-1.0495 0.72849-2.5188 0.72849-1.3458 0-2.3213-0.58032-0.97543-0.58032-1.494-1.6051-0.50624-1.0248-0.50624-2.3583 0-1.3212 0.50624-2.3336 0.51858-1.0248 1.494-1.6051 0.97543-0.58032 2.3213-0.58032z" style="white-space:pre"/><path d="m19.894 125.53q0.74083 0 1.3335 0.29633 0.60501 0.29634 0.93839 0.85196 0.34572 0.54328 0.34572 1.2841v3.9388h-0.71614v-3.9388q0-0.82726-0.58032-1.3335-0.58032-0.50623-1.457-0.50623-0.53093 0-1.0001 0.23459-0.45685 0.22225-1.21 0.86431v4.6796h-0.71614v-9.2604h0.71614v3.9881q0.76553-0.64205 1.2594-0.8643 0.49389-0.2346 1.0866-0.2346z" style="white-space:pre"/><path d="m27.339 125.52q1.0125 0 1.741 0.41981 0.72848 0.40746 1.1112 1.1606 0.38276 0.74084 0.38276 1.7163 0 0.97542-0.38276 1.7163-0.37042 0.74083-1.0989 1.1606-0.72848 0.41981-1.7533 0.41981-1.0125 0-1.741-0.41981-0.71614-0.43215-1.0989-1.173-0.38276-0.75318-0.38276-1.7039 0-0.95074 0.38276-1.6916 0.38276-0.75318 1.0989-1.173 0.72848-0.43215 1.741-0.43215zm0 0.59267q-1.1606 0-1.8397 0.74083-0.66675 0.72849-0.66675 1.9632t0.66675 1.9756q0.6791 0.72848 1.8397 0.72848 1.1977 0 1.8521-0.71614 0.66675-0.72848 0.66675-1.9879 0-1.2594-0.6791-1.9756-0.66675-0.72848-1.8397-0.72848z" style="white-space:pre"/><path d="m32.673 123.47q0.2346 0 0.38276 0.13582 0.14817 0.13582 0.14817 0.35807t-0.14817 0.35806q-0.14817 0.13582-0.38276 0.13582t-0.38276-0.13582q-0.13582-0.13581-0.13582-0.35806t0.13582-0.35807q0.14817-0.13582 0.38276-0.13582zm-0.35807 8.4331v-6.1736h0.71614v6.1736z" style="white-space:pre"/><path d="m37.18 132.11q-0.77787 0-1.4817-0.22225-0.70379-0.22225-1.1112-0.61736l0.24694-0.45685q0.34572 0.33338 1.0001 0.54328 0.6544 0.19755 1.3705 0.19755 0.80257 0 1.3335-0.28398 0.54328-0.29633 0.54328-0.91369 0-0.4445-0.24694-0.7038-0.24694-0.25929-0.66675-0.38276-0.4198-0.12347-1.1236-0.24694-0.69144-0.12347-1.1483-0.29634-0.45685-0.17286-0.74083-0.50623-0.28399-0.34572-0.28399-0.91369 0-0.889 0.72848-1.3335 0.72848-0.45685 1.8027-0.45685 0.59267 0 1.1483 0.14817 0.55562 0.13582 0.96308 0.39511l-0.22225 0.46919q-0.35807-0.22225-0.87665-0.33337-0.50624-0.12347-1.0248-0.12347-0.77787 0-1.3088 0.30868t-0.53093 0.87665q0 0.54327 0.40746 0.77787 0.4198 0.22225 1.2347 0.35807 0.82726 0.14817 1.3582 0.33337 0.53093 0.17287 0.8643 0.54328 0.34572 0.37042 0.34572 1.0001 0 0.95074-0.76553 1.3952-0.75318 0.4445-1.815 0.4445z" style="white-space:pre"/><path d="m41.736 123.47q0.2346 0 0.38276 0.13582t0.14817 0.35807-0.14817 0.35806q-0.14817 0.13582-0.38276 0.13582t-0.38276-0.13582q-0.13582-0.13581-0.13582-0.35806t0.13582-0.35807q0.14817-0.13582 0.38276-0.13582zm-0.35807 8.4331v-6.1736h0.71614v6.1736z" style="white-space:pre"/><path d="m46.243 132.11q-0.77787 0-1.4817-0.22225-0.70379-0.22225-1.1112-0.61736l0.24694-0.45685q0.34572 0.33338 1.0001 0.54328 0.6544 0.19755 1.3705 0.19755 0.80257 0 1.3335-0.28398 0.54328-0.29633 0.54328-0.91369 0-0.4445-0.24694-0.7038-0.24694-0.25929-0.66675-0.38276-0.4198-0.12347-1.1236-0.24694-0.69144-0.12347-1.1483-0.29634-0.45685-0.17286-0.74083-0.50623-0.28399-0.34572-0.28399-0.91369 0-0.889 0.72848-1.3335 0.72848-0.45685 1.8027-0.45685 0.59267 0 1.1483 0.14817 0.55562 0.13582 0.96308 0.39511l-0.22225 0.46919q-0.35807-0.22225-0.87665-0.33337-0.50624-0.12347-1.0248-0.12347-0.77787 0-1.3088 0.30868t-0.53093 0.87665q0 0.54327 0.40746 0.77787 0.4198 0.22225 1.2347 0.35807 0.82726 0.14817 1.3582 0.33337 0.53093 0.17287 0.8643 0.54328 0.34572 0.37042 0.34572 1.0001 0 0.95074-0.76553 1.3952-0.75318 0.4445-1.815 0.4445z" style="white-space:pre"/><path d="m52.466 132.11q-0.77787 0-1.4817-0.22225-0.70379-0.22225-1.1112-0.61736l0.24694-0.45685q0.34572 0.33338 1.0001 0.54328 0.6544 0.19755 1.3705 0.19755 0.80257 0 1.3335-0.28398 0.54328-0.29633 0.54328-0.91369 0-0.4445-0.24694-0.7038-0.24694-0.25929-0.66675-0.38276-0.4198-0.12347-1.1236-0.24694-0.69144-0.12347-1.1483-0.29634-0.45685-0.17286-0.74083-0.50623-0.28399-0.34572-0.28399-0.91369 0-0.889 0.72848-1.3335 0.72848-0.45685 1.8027-0.45685 0.59267 0 1.1483 0.14817 0.55562 0.13582 0.96308 0.39511l-0.22225 0.46919q-0.35807-0.22225-0.87665-0.33337-0.50624-0.12347-1.0248-0.12347-0.77787 0-1.3088 0.30868t-0.53093 0.87665q0 0.54327 0.40746 0.77787 0.4198 0.22225 1.2347 0.35807 0.82726 0.14817 1.3582 0.33337 0.53093 0.17287 0.8643 0.54328 0.34572 0.37042 0.34572 1.0001 0 0.95074-0.76553 1.3952-0.75318 0.4445-1.815 0.4445z" style="white-space:pre"/><path d="m62.356 128.32q0 0.40745-0.07408 0.83961h-5.2723q0.09878 1.1606 0.76553 1.778 0.66675 0.61736 1.7286 0.61736 0.54328 0 1.0495-0.14816 0.51858-0.14817 0.92604-0.43215l0.35807 0.46919q-0.97543 0.66675-2.3336 0.66675-1.0125 0-1.741-0.41981-0.72848-0.43215-1.1112-1.1853-0.38276-0.76552-0.38276-1.7533 0-0.92604 0.35807-1.6545 0.37042-0.74083 1.0866-1.1606 0.71614-0.41981 1.7286-0.41981 1.3705 0 2.1361 0.72849 0.77787 0.72848 0.77787 2.0743zm-2.951-2.2472q-1.1112 0-1.741 0.67909-0.61736 0.6791-0.66675 1.8644h4.6549q0.02469-0.32103 0.02469-0.43215 0-1.0125-0.60501-1.5558-0.60501-0.55562-1.6669-0.55562z" style="white-space:pre"/><path d="m68.147 131.34v0.55563h-4.8031v-0.33338l3.7782-5.2846h-3.593v-0.55562h4.5561v0.32102l-3.8029 5.297z" style="white-space:pre"/><path d="m77.645 125.73-2.4941 6.1736h-0.77787l-2.4941-6.1736h0.75318l2.1361 5.4945 2.1361-5.4945z" style="white-space:pre"/><path d="m81.625 125.52q1.0125 0 1.741 0.41981 0.72848 0.40746 1.1112 1.1606 0.38277 0.74084 0.38277 1.7163 0 0.97542-0.38277 1.7163-0.37041 0.74083-1.0989 1.1606-0.72848 0.41981-1.7533 0.41981-1.0125 0-1.741-0.41981-0.71614-0.43215-1.0989-1.173-0.38276-0.75318-0.38276-1.7039 0-0.95074 0.38276-1.6916 0.38277-0.75318 1.0989-1.173 0.72848-0.43215 1.741-0.43215zm0 0.59267q-1.1606 0-1.8397 0.74083-0.66675 0.72849-0.66675 1.9632t0.66675 1.9756q0.67909 0.72848 1.8397 0.72848 1.1977 0 1.8521-0.71614 0.66675-0.72848 0.66675-1.9879 0-1.2594-0.6791-1.9756-0.66675-0.72848-1.8397-0.72848z" style="white-space:pre"/><path d="m87.705 126.28v2.7534q0 1.173 0.33338 1.8274 0.33337 0.6544 1.2718 0.6544 0.2099 0 0.30868-0.0123v0.59267q-0.11113 0.0123-0.33338 0.0123-1.0001 0-1.5064-0.45685-0.50623-0.45685-0.6544-1.0989-0.13582-0.64205-0.13582-1.5187v-2.7534h-1.2347v-0.55562h1.2347v-1.7656h0.71614v1.7656h1.9138v0.55562z" style="white-space:pre"/><path d="m94.195 125.52v0.61736q-0.17287-0.0247-0.28399-0.0247-0.46919 0-0.8643 0.25929-0.39511 0.24694-1.1853 1.0125v4.5191h-0.71613v-6.1736h0.6544l0.037 1.0618q0.81492-0.76552 1.2347-1.0125 0.43215-0.25929 0.97543-0.25929z" style="white-space:pre"/><path d="m100.99 128.32q0 0.40745-0.0741 0.83961h-5.2722q0.0988 1.1606 0.76553 1.778 0.66674 0.61736 1.7286 0.61736 0.54328 0 1.0495-0.14816 0.51858-0.14817 0.92604-0.43215l0.35806 0.46919q-0.97542 0.66675-2.3336 0.66675-1.0125 0-1.741-0.41981-0.72849-0.43215-1.1112-1.1853-0.38276-0.76552-0.38276-1.7533 0-0.92604 0.35807-1.6545 0.37041-0.74083 1.0866-1.1606 0.71614-0.41981 1.7286-0.41981 1.3705 0 2.1361 0.72849 0.77788 0.72848 0.77788 2.0743zm-2.951-2.2472q-1.1112 0-1.741 0.67909-0.61736 0.6791-0.66675 1.8644h4.6549q0.0247-0.32103 0.0247-0.43215 0-1.0125-0.60501-1.5558-0.60501-0.55562-1.6669-0.55562z" style="white-space:pre"/><path d="m108.48 125.52q0.55562 0 1.0125 0.13582 0.46919 0.12347 0.74083 0.32103l-0.38276 0.45685q-0.19756-0.14817-0.55562-0.2346-0.34573-0.0864-0.76553-0.0864-1.173 0-1.8644 0.75318-0.69144 0.74083-0.69144 1.9509 0 0.81491 0.30868 1.4323 0.32103 0.60501 0.889 0.93839 0.58032 0.33337 1.3335 0.33337 0.37042 0 0.75318-0.0864 0.38277-0.0988 0.64206-0.27164l0.39511 0.4692q-0.34572 0.22225-0.85196 0.34572-0.49389 0.13582-0.98777 0.13582-0.93839 0-1.6669-0.40746-0.72848-0.4198-1.1359-1.1606-0.40746-0.75318-0.40746-1.7163 0-0.93838 0.38277-1.6916 0.38276-0.75318 1.1112-1.1853 0.74084-0.43215 1.741-0.43215z" style="white-space:pre"/><path d="m114.46 125.52q1.0125 0 1.741 0.41981 0.72848 0.40746 1.1112 1.1606 0.38276 0.74084 0.38276 1.7163 0 0.97542-0.38276 1.7163-0.37042 0.74083-1.0989 1.1606-0.72849 0.41981-1.7533 0.41981-1.0125 0-1.741-0.41981-0.71614-0.43215-1.0989-1.173-0.38277-0.75318-0.38277-1.7039 0-0.95074 0.38277-1.6916 0.38276-0.75318 1.0989-1.173 0.72848-0.43215 1.741-0.43215zm0 0.59267q-1.1606 0-1.8397 0.74083-0.66675 0.72849-0.66675 1.9632t0.66675 1.9756q0.6791 0.72848 1.8397 0.72848 1.1977 0 1.8521-0.71614 0.66675-0.72848 0.66675-1.9879 0-1.2594-0.67909-1.9756-0.66675-0.72848-1.8397-0.72848z" style="white-space:pre"/><path d="m121.75 125.56q0.76552 0 1.3829 0.28399 0.61736 0.27164 0.97543 0.79022t0.35807 1.21v4.0499h-0.6544l-0.037-0.889q-0.54328 0.55562-1.0866 0.81491-0.54327 0.24695-1.21 0.24695-0.6791 0-1.2594-0.22225-0.58031-0.22225-0.95073-0.6791-0.35807-0.46919-0.35807-1.1483 0-1.0001 0.75318-1.5187 0.76553-0.51859 1.9509-0.51859 0.54327 0 1.0495 0.12347 0.50623 0.12348 1.0866 0.40746v-0.67909q0-0.79022-0.59266-1.2594-0.59267-0.48154-1.494-0.48154-0.98778 0-2.0249 0.58032l-0.20991-0.50624q0.4692-0.27163 1.0866-0.43215 0.6297-0.17286 1.2347-0.17286zm-0.12348 5.9514q0.61736 0 1.1236-0.24694 0.50624-0.25929 1.0001-0.80257v-1.4323q-0.51858-0.30868-1.0001-0.43215-0.48154-0.13582-1.0372-0.13582-0.93839 0-1.5311 0.38277-0.59266 0.38276-0.59266 1.1359t0.58032 1.1483q0.59266 0.38276 1.457 0.38276z" style="white-space:pre"/><path d="m128.62 132.11q-0.889 0-1.3705-0.32103t-0.6791-0.97543q-0.1852-0.66675-0.1852-1.778v-6.3958h0.71613v6.3958q0 0.98778 0.16052 1.5311 0.16051 0.53093 0.49388 0.74083 0.33338 0.2099 0.90135 0.2099 0.2099 0 0.33337-0.0123v0.59267q-0.12347 0.0123-0.37041 0.0123z" style="white-space:pre"/><path d="m130.69 123.47q0.2346 0 0.38277 0.13582 0.14816 0.13582 0.14816 0.35807t-0.14816 0.35806q-0.14817 0.13582-0.38277 0.13582-0.23459 0-0.38276-0.13582-0.13582-0.13581-0.13582-0.35806t0.13582-0.35807q0.14817-0.13582 0.38276-0.13582zm-0.35806 8.4331v-6.1736h0.71613v6.1736z" style="white-space:pre"/><path d="m134.27 126.28v2.7534q0 1.173 0.33337 1.8274 0.33338 0.6544 1.2718 0.6544 0.20991 0 0.30868-0.0123v0.59267q-0.11112 0.0123-0.33337 0.0123-1.0001 0-1.5064-0.45685-0.50623-0.45685-0.6544-1.0989-0.13582-0.64205-0.13582-1.5187v-2.7534h-1.2347v-0.55562h1.2347v-1.7656h0.71614v1.7656h1.9138v0.55562z" style="white-space:pre"/><path d="m138.08 123.47q0.23459 0 0.38276 0.13582 0.14816 0.13582 0.14816 0.35807t-0.14816 0.35806q-0.14817 0.13582-0.38276 0.13582-0.2346 0-0.38277-0.13582-0.13582-0.13581-0.13582-0.35806t0.13582-0.35807q0.14817-0.13582 0.38277-0.13582zm-0.35807 8.4331v-6.1736h0.71613v6.1736z" style="white-space:pre"/><path d="m143.39 125.52q1.0125 0 1.741 0.41981 0.72848 0.40746 1.1112 1.1606 0.38276 0.74084 0.38276 1.7163 0 0.97542-0.38276 1.7163-0.37042 0.74083-1.0989 1.1606-0.72849 0.41981-1.7533 0.41981-1.0125 0-1.741-0.41981-0.71614-0.43215-1.0989-1.173-0.38277-0.75318-0.38277-1.7039 0-0.95074 0.38277-1.6916 0.38276-0.75318 1.0989-1.173 0.72848-0.43215 1.741-0.43215zm0 0.59267q-1.1606 0-1.8397 0.74083-0.66675 0.72849-0.66675 1.9632t0.66675 1.9756q0.6791 0.72848 1.8397 0.72848 1.1977 0 1.8521-0.71614 0.66675-0.72848 0.66675-1.9879 0-1.2594-0.67909-1.9756-0.66675-0.72848-1.8397-0.72848z" style="white-space:pre"/><path d="m151.42 125.52q0.74083 0 1.3335 0.29634 0.60501 0.29633 0.93839 0.85195 0.34572 0.54328 0.34572 1.2841v3.9511h-0.71614v-3.9511q0-0.82726-0.58032-1.3335-0.58032-0.50623-1.457-0.50623-0.51858 0-0.98777 0.2346-0.45685 0.22224-1.2224 0.87665v4.6796h-0.71613v-6.1736h0.6544l0.037 0.92604q0.79022-0.66675 1.2841-0.90135t1.0866-0.2346z" style="white-space:pre"/></g><path d="m10 27.613 74.795-17.613 74.698 17.696-4.0512 4.2702h-141.2z" fill="#222"/><rect x="49.735" y="50.493" width="5.5787" height="35.007" rx="1" fill="#ed302c"/><rect x="62.735" y="59.573" width="5.5787" height="25.931" rx="1" fill="#702a82"/><rect x="75.735" y="44.563" width="5.5787" height="40.938" rx="1" fill="#1c2efa"/><rect x="88.738" y="47.713" width="5.5787" height="37.786" rx="1" fill="#66bf74"/><rect x="101.74" y="49.503" width="5.5787" height="35.994" rx="1" fill="#f26d22"/><rect x="114.74" y="63.083" width="5.5787" height="22.418" rx="1" fill="#8d949a"/><rect x="127.74" y="53.483" width="5.5787" height="32.022" rx="1" fill="#d46ca9"/><rect x="140.74" y="46.153" width="5.5787" height="39.345" rx="1" fill="#8d949a"/></svg>
