<?xml version="1.0" encoding="UTF-8"?>
<svg width="165.67mm" height="104.63mm" version="1.1" viewBox="0 0 165.67 104.63" xmlns="http://www.w3.org/2000/svg"><rect x="21.735" y="41.523" width="5.5787" height="41.981" rx="1" fill="#222"/><path d="m14.834 32.583 3.8708 4.3627h128.83l3.6963-4.279z" fill="#222"/><path d="m8.285 96.633 4.2395-8.0392h141.1l4.0483 7.885z" fill="#222"/><rect x="34.735" y="55.343" width="5.5787" height="28.163" rx="1" fill="#222"/><path d="m8 25.613 74.795-17.613 74.698 17.696-4.0512 4.2702h-141.2z" fill="#222"/><rect x="47.735" y="48.493" width="5.5787" height="35.007" rx="1" fill="#222"/><rect x="60.735" y="57.573" width="5.5787" height="25.931" rx="1" fill="#222"/><rect x="73.735" y="42.563" width="5.5787" height="40.938" rx="1" fill="#222"/><rect x="86.738" y="45.713" width="5.5787" height="37.786" rx="1" fill="#222"/><rect x="99.74" y="47.503" width="5.5787" height="35.994" rx="1" fill="#222"/><rect x="112.74" y="61.083" width="5.5787" height="22.418" rx="1" fill="#222"/><rect x="125.74" y="51.483" width="5.5787" height="32.022" rx="1" fill="#222"/><rect x="138.74" y="44.153" width="5.5787" height="39.345" rx="1" fill="#222"/></svg>
