<?xml version="1.0" encoding="UTF-8"?>
<svg width="169.67mm" height="138.71mm" version="1.1" viewBox="0 0 169.67 138.71" xmlns="http://www.w3.org/2000/svg"><rect x="23.735" y="43.523" width="5.5787" height="41.981" rx="1" fill="#fff"/><path d="m16.834 34.583 3.8708 4.3627h128.83l3.6963-4.279z" fill="#fff"/><path d="m10.285 98.633 4.2395-8.0392h141.1l4.0483 7.885z" fill="#fff"/><rect x="36.735" y="57.343" width="5.5787" height="28.163" rx="1" fill="#fff"/><path d="m10 27.613 74.795-17.613 74.698 17.696-4.0512 4.2702h-141.2z" fill="#fff"/><rect x="49.735" y="50.493" width="5.5787" height="35.007" rx="1" fill="#fff"/><rect x="62.735" y="59.573" width="5.5787" height="25.931" rx="1" fill="#fff"/><rect x="75.735" y="44.563" width="5.5787" height="40.938" rx="1" fill="#fff"/><rect x="88.738" y="47.713" width="5.5787" height="37.786" rx="1" fill="#fff"/><rect x="101.74" y="49.503" width="5.5787" height="35.994" rx="1" fill="#fff"/><rect x="114.74" y="63.083" width="5.5787" height="22.418" rx="1" fill="#fff"/><rect x="127.74" y="53.483" width="5.5787" height="32.022" rx="1" fill="#fff"/><rect x="140.74" y="46.153" width="5.5787" height="39.345" rx="1" fill="#fff"/><g transform="matrix(.26458 0 0 .26458 1.6512 -45.148)" fill="#fff" style="shape-inside:url(#rect10781);white-space:pre" aria-label="LegiTest.fr"><path d="m61.823 559.58v60.133q0 7.216 7.3253 7.216h27.224l0.43733 7.4346q-7.1066 0.54667-14.541 0.656-7.3253 0.10933-14.651 0.10933-8.3093 0-11.808-4.0453t-3.4987-10.168v-61.336z"/><path d="m131.39 580.46q12.027 0 17.384 4.3733 5.4666 4.3733 5.4666 13.011 0.10933 7.1066-2.952 11.152-3.0613 3.936-9.7306 3.936h-24.709q0.43734 6.3413 2.296 9.7306 1.968 3.28 5.4666 4.592 3.4986 1.2027 8.9653 1.2027 4.264 0 9.2933-0.328 5.1386-0.43733 9.184-0.984l0.984 6.232q-2.5147 0.984-6.232 1.64-3.608 0.656-7.544 0.984-3.8267 0.32799-6.888 0.32799-9.184 0-14.76-2.7333-5.576-2.8427-8.2-8.9653-2.5147-6.232-2.5147-16.4 0-10.496 2.5147-16.509 2.624-6.1226 7.9813-8.6373 5.4666-2.624 13.995-2.624zm0.43734 7.872q-5.576 0-8.856 1.5307-3.1706 1.5307-4.7013 5.3573-1.4213 3.7173-1.64 10.496h22.523q3.608 0 4.7013-2.4053 1.0933-2.5147 1.0933-5.4666-0.10934-5.1386-3.0613-7.3253t-10.059-2.1867z"/><path d="m191.34 580.46q7.4346 0 12.136 1.312h16.837l-0.54667 5.1386-7.872 0.656q2.1867 3.608 2.1867 9.84 0 8.7466-5.0293 12.901-5.0293 4.0453-17.821 4.0453-6.6693 0-11.043-1.0933-1.2027 1.7493-1.4213 3.7173-0.10933 1.968 1.0933 3.4987t4.0453 1.968l19.899 3.1707q7.544 1.0933 10.496 4.7013t2.952 10.277q0 6.232-2.4053 9.84-2.296 3.608-7.872 5.1386-5.576 1.5307-15.088 1.5307-9.6213 0-15.307-1.5307-5.576-1.5307-7.9813-5.1386-2.4053-3.4986-2.4053-9.512 0-4.8106 1.968-7.544 2.0773-2.8426 6.7786-5.3573-2.8426-2.0773-3.608-5.248-0.65599-3.1706 0.328-6.3413 1.0933-3.1707 3.608-4.92-3.608-2.0773-5.248-5.4666-1.5307-3.4986-1.5307-8.528 0-6.0133 2.0773-9.7306 2.1867-3.8266 7.216-5.576t13.557-1.7493zm-0.10933 7.1066q-7.9813 0-11.152 2.296-3.0613 2.1867-3.0613 7.544 0 5.248 3.0613 7.544 3.1707 2.296 11.152 2.296 8.0906 0 11.152-2.296 3.0613-2.296 3.0613-7.544 0-5.3573-3.0613-7.544-3.0613-2.296-11.152-2.296zm-15.963 52.589q0 3.7173 1.4213 5.6853 1.4213 1.968 5.0293 2.624 3.608 0.76533 10.059 0.76533 6.4506 0 9.9493-0.76533 3.608-0.76533 5.0293-2.7333 1.4213-1.968 1.4213-5.576 0-2.7333-0.76534-4.1546-0.65599-1.4213-2.624-2.1867-1.968-0.76534-5.7946-1.312l-18.149-2.5147q-2.8427 2.1867-4.264 4.4826-1.312 2.296-1.312 5.6853z"/><path d="m240.46 559.14q2.8426 0 2.8426 2.8426v6.232q0 2.8426-2.8426 2.8426h-4.3733q-2.8427 0-2.8427-2.8426v-6.232q0-2.8426 2.8427-2.8426zm2.4053 22.632v53.245h-9.184v-53.245z"/><path d="m314.73 559.58v8.528h-24.381v66.912h-9.6213v-66.912h-24.272v-8.528z"/><path d="m337.5 580.46q12.027 0 17.384 4.3733 5.4666 4.3733 5.4666 13.011 0.10934 7.1066-2.952 11.152-3.0613 3.936-9.7306 3.936h-24.709q0.43733 6.3413 2.296 9.7306 1.968 3.28 5.4666 4.592 3.4987 1.2027 8.9653 1.2027 4.264 0 9.2933-0.328 5.1386-0.43733 9.184-0.984l0.984 6.232q-2.5147 0.984-6.232 1.64-3.608 0.656-7.544 0.984-3.8266 0.32799-6.888 0.32799-9.184 0-14.76-2.7333-5.576-2.8427-8.2-8.9653-2.5147-6.232-2.5147-16.4 0-10.496 2.5147-16.509 2.624-6.1226 7.9813-8.6373 5.4666-2.624 13.995-2.624zm0.43733 7.872q-5.576 0-8.856 1.5307-3.1706 1.5307-4.7013 5.3573-1.4213 3.7173-1.64 10.496h22.523q3.608 0 4.7013-2.4053 1.0933-2.5147 1.0933-5.4666-0.10934-5.1386-3.0613-7.3253t-10.059-2.1867z"/><path d="m394.06 580.46q5.248 0.10933 11.371 0.54667 6.1226 0.328 11.043 1.0933l-0.76533 6.7786q-5.0293-0.21866-10.168-0.328-5.0293-0.21866-10.059-0.21866-4.92-0.10934-7.7626 0.21866t-4.1546 1.7493q-1.2027 1.4213-1.2027 4.8106 0 4.1547 1.968 5.4666 1.968 1.312 5.7946 2.1867l15.525 3.4987q6.3413 1.5307 9.2933 4.7013 3.0613 3.1707 3.0613 9.9493 0 6.56-2.5147 9.84-2.4053 3.28-7.4346 4.3733t-12.792 1.0933q-2.8427 0-8.528-0.21866-5.576-0.21867-12.355-1.312l0.65599-6.7786q3.936 0.21867 8.528 0.43734 4.7013 0.10933 9.84 0 6.0133 0 9.4026-0.54667 3.3893-0.54666 4.8106-2.0773 1.4213-1.64 1.4213-4.8106 0-3.936-2.296-5.248-2.296-1.312-6.1226-2.1867l-15.307-3.4987q-6.4506-1.5307-9.2933-4.92-2.7333-3.3893-2.7333-9.9493 0-6.232 2.1867-9.4026 2.1867-3.1707 6.7786-4.264 4.592-1.0933 11.808-0.984z"/><path d="m464.17 581.77v7.3253h-16.947v31.269q0 3.8266 1.64 5.4666 1.64 1.64 5.576 1.64h8.0906l1.0933 7.1066q-2.624 0.76533-6.3413 1.0933t-5.6853 0.328q-6.6693 0-10.168-3.7173-3.4986-3.7173-3.4986-10.715v-32.472h-9.6213v-6.7786l9.6213-0.54666v-15.744h9.2933v15.744z"/><path d="m483.01 622.12q1.968 0 2.7333 0.76534 0.76533 0.76533 0.76533 2.7333v5.904q0 1.968-0.76533 2.7333-0.76534 0.76533-2.7333 0.76533h-3.0613q-1.8587 0-2.7333-0.76533-0.76533-0.76533-0.76533-2.7333v-5.904q0-1.968 0.76533-2.7333 0.87467-0.76534 2.7333-0.76534z"/><path d="m533.77 581.77v7.3253h-17.056v45.92h-9.2933v-45.92h-9.6213v-6.7786l9.6213-0.54666v-9.512q0-7.4346 3.4986-11.48 3.4987-4.1546 12.027-4.1546 1.7493 0 4.4827 0.10933 2.7333 0 5.576 0.21867 2.8427 0.10933 4.92 0.43733l-0.76533 6.888h-10.933q-5.248 0-7.4346 2.0773-2.0773 2.0773-2.0773 6.888v8.528z"/><path d="m554.03 581.77 0.984 8.4186q5.7946-4.592 11.48-7.1066 5.7946-2.624 11.261-2.624h2.4053l-1.0933 8.7466h-3.0613q-4.4826 0-9.0746 1.8587-4.4826 1.7493-10.824 4.92v39.032h-9.2933v-53.245z"/></g></svg>
