<?xml version="1.0" encoding="UTF-8"?>
<svg width="169.67mm" height="108.63mm" version="1.1" viewBox="0 0 169.67 108.63" xmlns="http://www.w3.org/2000/svg"><rect x="23.735" y="43.523" width="5.5787" height="41.981" rx="1" fill="#c7c034"/><path d="m16.834 34.583 3.8708 4.3627h128.83l3.6963-4.279z" fill="#fff"/><path d="m10.285 98.633 4.2395-8.0392h141.1l4.0483 7.885z" fill="#fff"/><rect x="36.735" y="57.343" width="5.5787" height="28.163" rx="1" fill="#a41914"/><path d="m10 27.613 74.795-17.613 74.698 17.696-4.0512 4.2702h-141.2z" fill="#fff"/><rect x="49.735" y="50.493" width="5.5787" height="35.007" rx="1" fill="#ed302c"/><rect x="62.735" y="59.573" width="5.5787" height="25.931" rx="1" fill="#702a82"/><rect x="75.735" y="44.563" width="5.5787" height="40.938" rx="1" fill="#1c2efa"/><rect x="88.738" y="47.713" width="5.5787" height="37.786" rx="1" fill="#66bf74"/><rect x="101.74" y="49.503" width="5.5787" height="35.994" rx="1" fill="#f26d22"/><rect x="114.74" y="63.083" width="5.5787" height="22.418" rx="1" fill="#8d949a"/><rect x="127.74" y="53.483" width="5.5787" height="32.022" rx="1" fill="#d46ca9"/><rect x="140.74" y="46.153" width="5.5787" height="39.345" rx="1" fill="#8d949a"/></svg>
